<?xml version="1.0" encoding="utf-8"?>
<!-- Generator: Adobe Illustrator 26.5.0, SVG Export Plug-In . SVG Version: 6.00 Build 0)  -->
<svg version="1.1" id="Layer_1" xmlns="http://www.w3.org/2000/svg" xmlns:xlink="http://www.w3.org/1999/xlink" x="0px" y="0px"
	 viewBox="0 0 1080 1080" style="enable-background:new 0 0 1080 1080;" xml:space="preserve">
<style type="text/css">
	.st0{fill:#96C13D;}
	.st1{clip-path:url(#SVGID_00000089563835387121200850000000985914673633973914_);}
</style>
<path class="st0" d="M325,786.4c-28.3,33-22,83.2,13.4,109.2c13.3,9.4,29.1,14.1,44,14.1c25.1,0,49.5-12.6,63.6-36.2l94.3-154
	l-66.8-108.4L325,786.4"/>
<g>
	<defs>
		<rect id="SVGID_1_" x="622.7" y="164" width="236.1" height="445.3"/>
	</defs>
	<clipPath id="SVGID_00000115484890019464013960000011484991913189901987_">
		<use xlink:href="#SVGID_1_"  style="overflow:visible;"/>
	</clipPath>
	<g style="clip-path:url(#SVGID_00000115484890019464013960000011484991913189901987_);">
		<path class="st0" d="M729.6,608.8c24.3-44.1,66-121,94.3-191c33.8-81.7,45.5-179.9,24.3-235.7c-7-19.6-33.8-22.8-46.3-5.5
			L636.1,405.3c1.6,26.7-2.4,54.2-13.4,79.3L729.6,608.8"/>
	</g>
</g>
<path class="st0" d="M563.8,490.9c32.2-46.4,31.4-110.8-5.5-157.2l-126.5-161c-8.7-10.2-23.6-12.6-34.6-4.7l-2.3,1.5
	c-11,8.7-13.4,24.4-4.8,35.4l121,155.6c8.7,11,6.3,27.5-4.7,35.3c-11,7.9-26.7,5.5-34.5-5.5L352.5,230.8c-7.8-11-23.5-13.3-34.5-5.5
	l-3.2,2.4c-11,7.8-13.3,23.5-5.5,34.6l115.5,162.6c7.9,11,5.5,26.7-5.5,34.6c-11.8,8.6-27.5,5.5-35.3-6.3L273.2,290.5
	c-7.9-11.8-23.6-14.1-35.4-6.2l-2.3,1.5c-11,7.9-13.4,22.8-6.3,33.8l113.9,170.5c33,49.5,94.3,69.2,147.7,53.4l202.6,330
	c22.8,37,73.1,47.2,108.4,21.3c35.3-25.9,41.6-76.3,13.3-109.3L563.8,490.9"/>
</svg>
