<?xml version="1.0" encoding="utf-8"?>
<!-- Generator: Adobe Illustrator 26.5.0, SVG Export Plug-In . SVG Version: 6.00 Build 0)  -->
<svg version="1.1" id="Layer_1" xmlns="http://www.w3.org/2000/svg" xmlns:xlink="http://www.w3.org/1999/xlink" x="0px" y="0px"
	 viewBox="0 0 1080 1080" style="enable-background:new 0 0 1080 1080;" xml:space="preserve">
<style type="text/css">
	.st0{clip-path:url(#SVGID_00000089566819808502344150000006931492555421897658_);}
	.st1{fill:#63A335;}
	.st2{fill:#80CB4A;}
	.st3{fill:#70B747;}
	.st4{clip-path:url(#SVGID_00000067219334155148048040000002542208259266993807_);}
	.st5{fill:#8DD361;}
</style>
<g>
	<defs>
		<rect id="SVGID_1_" x="137.3" y="252" width="736" height="577.2"/>
	</defs>
	<clipPath id="SVGID_00000147211902964536444530000017820830872933940624_">
		<use xlink:href="#SVGID_1_"  style="overflow:visible;"/>
	</clipPath>
	<g style="clip-path:url(#SVGID_00000147211902964536444530000017820830872933940624_);">
		<path class="st1" d="M872.5,521c1.7,3.4,0.4,7.5-3,9.2L281.7,827.5c-3.4,1.7-7.5,0.3-9.2-3L138.7,559.4c-1.7-3.4-0.3-7.5,3-9.2
			l587.8-297.3c3.4-1.7,7.5-0.4,9.2,3L872.5,521"/>
	</g>
</g>
<path class="st2" d="M830.1,513.3c1.4,2.8,0.1,6.3-2.9,7.8L299.4,788c-3,1.5-6.6,0.5-8-2.3L181.1,567.2c-1.4-2.8-0.1-6.2,2.9-7.8
	l527.8-266.9c3-1.5,6.6-0.5,8,2.3L830.1,513.3"/>
<path class="st1" d="M581.9,501.6c21.3,42.2,4.4,93.7-37.8,115C502,638,450.6,621,429.3,578.8c-21.3-42.2-4.4-93.7,37.8-115
	C509.2,442.5,560.6,459.4,581.9,501.6"/>
<path class="st1" d="M181.1,567.2l29.9,59.2c35.5-17.9,49.7-61.2,31.8-96.7L184,559.4C181,560.9,179.7,564.4,181.1,567.2"/>
<path class="st3" d="M299,788.2l59.2-29.9c-17.9-35.5-61.2-49.7-96.6-31.8l29.7,58.8C292.7,788.3,296.2,789.6,299,788.2"/>
<path class="st1" d="M719.8,294.7l29.9,59.2c-35.5,17.9-78.7,3.7-96.6-31.8l58.7-29.7C714.8,290.9,718.4,292,719.8,294.7"/>
<path class="st1" d="M827.6,520.8l-59.2,29.9c-17.9-35.5-3.7-78.8,31.8-96.7l29.7,58.8C831.4,515.9,830.4,519.4,827.6,520.8"/>
<g>
	<defs>
		<rect id="SVGID_00000075134326200932525260000008870247548699988886_" x="269.3" y="517.3" width="674.7" height="311.9"/>
	</defs>
	<clipPath id="SVGID_00000006669270708257140860000016846927480556787629_">
		<use xlink:href="#SVGID_00000075134326200932525260000008870247548699988886_"  style="overflow:visible;"/>
	</clipPath>
	<g style="clip-path:url(#SVGID_00000006669270708257140860000016846927480556787629_);">
		<path class="st3" d="M942.8,821.4c0,3.8-3.1,6.8-6.8,6.8H277.4c-3.8,0-6.8-3.1-6.8-6.8v-297c0-3.8,3.1-6.8,6.8-6.8H936
			c3.8,0,6.8,3.1,6.8,6.8V821.4"/>
	</g>
</g>
<path class="st5" d="M908.5,795.3c0,3.1-2.7,5.6-6.1,5.6H311.1c-3.4,0-6.1-2.5-6.1-5.6V550.5c0-3.1,2.7-5.6,6.1-5.6h591.3
	c3.4,0,6.1,2.5,6.1,5.6V795.3"/>
<path class="st3" d="M692.3,672.9c0,47.3-38.3,85.6-85.5,85.6c-47.2,0-85.5-38.3-85.5-85.6c0-47.3,38.3-85.6,85.5-85.6
	C654,587.3,692.3,625.6,692.3,672.9"/>
<path class="st3" d="M304.9,550.5v66.4c39.7,0,71.9-32.2,71.9-72h-65.8C307.7,544.8,304.9,547.4,304.9,550.5"/>
<path class="st3" d="M310.6,801h66.3c0-39.8-32.2-72-71.9-72v65.9C304.9,798.2,307.5,801,310.6,801"/>
<path class="st3" d="M908.5,550.5v66.4c-39.7,0-71.9-32.2-71.9-72h65.8C905.7,544.8,908.5,547.4,908.5,550.5"/>
<path class="st3" d="M902.9,801h-66.3c0-39.8,32.2-72,71.9-72v65.9C908.5,798.2,906,801,902.9,801"/>
</svg>
