<?xml version="1.0" encoding="utf-8"?>
<!-- Generator: Adobe Illustrator 26.5.0, SVG Export Plug-In . SVG Version: 6.00 Build 0)  -->
<svg version="1.1" id="Layer_1" xmlns="http://www.w3.org/2000/svg" xmlns:xlink="http://www.w3.org/1999/xlink" x="0px" y="0px"
	 viewBox="0 0 1080 1080" style="enable-background:new 0 0 1080 1080;" xml:space="preserve">
<style type="text/css">
	.st0{clip-path:url(#SVGID_00000023253193515496942340000006231873268619166639_);}
	.st1{fill:#A53165;}
	.st2{clip-path:url(#SVGID_00000122702551004783572340000014341941854410591104_);}
	.st3{clip-path:url(#SVGID_00000058569797112968839410000004851434639612532615_);}
</style>
<g>
	<defs>
		<rect id="SVGID_1_" x="368" y="257.8" width="445.4" height="111.5"/>
	</defs>
	<clipPath id="SVGID_00000114754526544445999360000003952504798245963154_">
		<use xlink:href="#SVGID_1_"  style="overflow:visible;"/>
	</clipPath>
	<g style="clip-path:url(#SVGID_00000114754526544445999360000003952504798245963154_);">
		<path class="st1" d="M813.4,313.7c0,30.5-16.3,55.2-36.4,55.2H405.4c-20.1,0-36.4-24.7-36.4-55.2c0-30.5,16.3-55.2,36.4-55.2H777
			C797.1,258.5,813.4,283.3,813.4,313.7"/>
	</g>
</g>
<path class="st1" d="M727.6,749.3h-50.5l80.8-414.1h50.5L727.6,749.3"/>
<g>
	<defs>
		<rect id="SVGID_00000132808415027900404630000001792454073220107434_" x="544" y="665.3" width="184" height="156.5"/>
	</defs>
	<clipPath id="SVGID_00000139990688170041854260000017272721893512463232_">
		<use xlink:href="#SVGID_00000132808415027900404630000001792454073220107434_"  style="overflow:visible;"/>
	</clipPath>
	<g style="clip-path:url(#SVGID_00000139990688170041854260000017272721893512463232_);">
		<path class="st1" d="M727.6,743.8c0,42.9-40.9,77.6-91.4,77.6c-50.5,0-91.4-34.7-91.4-77.6c0-42.9,40.9-77.6,91.4-77.6
			C686.7,666.2,727.6,700.9,727.6,743.8"/>
	</g>
</g>
<path class="st1" d="M345.1,749.3h-50.5l80.8-414.1h50.5L345.1,749.3"/>
<g>
	<defs>
		<rect id="SVGID_00000082369180189232420940000004654483557248897408_" x="162.4" y="665.3" width="183" height="156.5"/>
	</defs>
	<clipPath id="SVGID_00000091705258304339260900000003084160290720104881_">
		<use xlink:href="#SVGID_00000082369180189232420940000004654483557248897408_"  style="overflow:visible;"/>
	</clipPath>
	<g style="clip-path:url(#SVGID_00000091705258304339260900000003084160290720104881_);">
		<path class="st1" d="M345.1,743.8c0,42.9-40.9,77.6-91.4,77.6c-50.5,0-91.4-34.7-91.4-77.6c0-42.9,40.9-77.6,91.4-77.6
			C304.2,666.2,345.1,700.9,345.1,743.8"/>
	</g>
</g>
</svg>
