<?xml version="1.0" encoding="utf-8"?>
<!-- Generator: Adobe Illustrator 26.5.0, SVG Export Plug-In . SVG Version: 6.00 Build 0)  -->
<svg version="1.1" id="Layer_1" xmlns="http://www.w3.org/2000/svg" xmlns:xlink="http://www.w3.org/1999/xlink" x="0px" y="0px"
	 viewBox="0 0 1080 1080" style="enable-background:new 0 0 1080 1080;" xml:space="preserve">
<style type="text/css">
	.st0{fill-rule:evenodd;clip-rule:evenodd;fill:#4BBFA8;}
	.st1{fill-rule:evenodd;clip-rule:evenodd;fill:#FFFFFF;}
	.st2{fill:#808080;}
	.st3{clip-path:url(#SVGID_00000099621801940263079300000009409137449260557976_);}
	.st4{fill-rule:evenodd;clip-rule:evenodd;fill:#FFCC49;}
	.st5{fill:#FFFFFF;}
</style>
<path class="st0" d="M874.7,543.2c-27.1-19.2-66.8-12.1-89-40.7c-10.6-13.6-11.4-32.1-16.8-48.1c-17.9-51.1-53-90.9-97.8-117.9
	c-146.5-88.4-358.5-25.9-437.3,130.2c-35.5,70.5-31.9,157.7-31.9,234.7c-1.7,28.2,23.9,41.4,45.5,40.9c9.9-0.2,17,3.4,19-5.8
	c11-50.2,44.6-82.1,117.8-73.5c16.4,1.9,31.2,12.5,41.8,23.1c14.6,14.7,24.1,32.5,27.6,52.2c3.7,20.7,158.6,27.4,165,3.2
	c5.2-19.2,9.1-25.2,13.1-33c3.2-6,9.1-14,18.1-22.4c13.1-12.1,36.2-23.1,68.5-23.1c14.6,0,40.9,9.5,52.6,18.3
	c18.1,13.8,29.5,29.7,35.1,59.9c5.2,27.6,95.9,9.7,100.2-30.6C911.1,667.1,913.7,570.6,874.7,543.2z"/>
<path class="st1" d="M712,435.9c-19.4-31.9-47.2-65.7-82.1-82.3c-9.5-4.5-19.8-8.2-29.9-10.8c-50.2-12.5-71.9,17.7-75.4,58.6
	c-1.7,13.1-0.4,39.4,0.2,52.8c0.4,10.1,2.2,19.8,4.3,30c11.4,50.6,54.3,42,98.7,42c29.5,0,100.4,1.3,105.6-35.6
	C736.1,471.4,721.3,451.2,712,435.9z"/>
<path class="st1" d="M492.3,403.1c-3.2-42-23.9-73.3-71.5-60.3c-9.7,2.6-19.4,6.5-28.4,11c-33,17-59.5,51.9-77.8,84.7
	c-8.8,15.7-22.8,36.4-20.2,56c5,37.9,72.2,36.6,100.2,36.6c42,0,82.7,8.8,93.5-43.3c2.2-10.3,3.7-20.3,4.1-30.8
	C492.7,443.6,494,416.7,492.3,403.1z"/>
<path class="st2" d="M443.2,744.5c0,1.4,0,2.9-0.1,4.3s-0.2,2.9-0.3,4.3c-0.1,1.4-0.3,2.8-0.5,4.3c-0.2,1.4-0.4,2.8-0.7,4.2
	c-0.3,1.4-0.6,2.8-0.9,4.2c-0.3,1.4-0.7,2.8-1.1,4.1c-0.4,1.4-0.8,2.7-1.3,4.1c-0.5,1.3-1,2.7-1.5,4c-0.5,1.3-1.1,2.6-1.7,3.9
	c-0.6,1.3-1.2,2.6-1.9,3.8c-0.7,1.3-1.3,2.5-2,3.7c-0.7,1.2-1.4,2.4-2.2,3.6c-0.8,1.2-1.6,2.4-2.4,3.5c-0.8,1.1-1.7,2.3-2.6,3.4
	c-0.9,1.1-1.8,2.2-2.7,3.2c-0.9,1.1-1.9,2.1-2.9,3.1c-1,1-2,2-3,3c-1,1-2.1,1.9-3.1,2.8c-1.1,0.9-2.2,1.8-3.3,2.6
	c-1.1,0.9-2.2,1.7-3.4,2.5c-1.2,0.8-2.3,1.6-3.5,2.3c-1.2,0.7-2.4,1.4-3.6,2.1c-1.2,0.7-2.5,1.3-3.7,1.9c-1.2,0.6-2.5,1.2-3.8,1.7
	c-1.3,0.5-2.6,1.1-3.9,1.5c-1.3,0.5-2.6,0.9-3.9,1.3c-1.3,0.4-2.7,0.8-4,1.1c-1.3,0.3-2.7,0.7-4,0.9c-1.4,0.3-2.7,0.5-4.1,0.7
	c-1.4,0.2-2.7,0.4-4.1,0.5c-1.4,0.1-2.8,0.2-4.1,0.3c-1.4,0.1-2.8,0.1-4.1,0.1c-1.4,0-2.8,0-4.1-0.1c-1.4-0.1-2.8-0.2-4.1-0.3
	c-1.4-0.1-2.7-0.3-4.1-0.5c-1.4-0.2-2.7-0.5-4.1-0.7c-1.4-0.3-2.7-0.6-4-0.9c-1.3-0.3-2.7-0.7-4-1.1c-1.3-0.4-2.6-0.9-3.9-1.3
	c-1.3-0.5-2.6-1-3.9-1.5c-1.3-0.5-2.5-1.1-3.8-1.7c-1.2-0.6-2.5-1.2-3.7-1.9c-1.2-0.7-2.4-1.4-3.6-2.1c-1.2-0.7-2.4-1.5-3.5-2.3
	c-1.1-0.8-2.3-1.6-3.4-2.5c-1.1-0.8-2.2-1.7-3.3-2.6c-1.1-0.9-2.1-1.8-3.1-2.8c-1-1-2-1.9-3-3c-1-1-1.9-2-2.9-3.1
	c-0.9-1.1-1.8-2.1-2.7-3.2c-0.9-1.1-1.7-2.2-2.6-3.4c-0.8-1.1-1.6-2.3-2.4-3.5c-0.8-1.2-1.5-2.4-2.2-3.6c-0.7-1.2-1.4-2.5-2-3.7
	c-0.7-1.3-1.3-2.5-1.9-3.8c-0.6-1.3-1.2-2.6-1.7-3.9c-0.5-1.3-1-2.7-1.5-4c-0.5-1.3-0.9-2.7-1.3-4.1c-0.4-1.4-0.8-2.7-1.1-4.1
	c-0.3-1.4-0.6-2.8-0.9-4.2c-0.3-1.4-0.5-2.8-0.7-4.2c-0.2-1.4-0.4-2.8-0.5-4.3c-0.1-1.4-0.2-2.8-0.3-4.3s-0.1-2.9-0.1-4.3
	s0-2.9,0.1-4.3s0.2-2.9,0.3-4.3c0.1-1.4,0.3-2.8,0.5-4.3c0.2-1.4,0.4-2.8,0.7-4.2c0.3-1.4,0.6-2.8,0.9-4.2c0.3-1.4,0.7-2.8,1.1-4.1
	c0.4-1.4,0.8-2.7,1.3-4.1c0.5-1.3,1-2.7,1.5-4c0.5-1.3,1.1-2.6,1.7-3.9c0.6-1.3,1.2-2.6,1.9-3.8c0.7-1.3,1.3-2.5,2-3.7
	c0.7-1.2,1.5-2.4,2.2-3.6c0.8-1.2,1.6-2.4,2.4-3.5c0.8-1.2,1.7-2.3,2.6-3.4c0.9-1.1,1.8-2.2,2.7-3.2c0.9-1.1,1.9-2.1,2.9-3.1
	c1-1,2-2,3-3c1-1,2.1-1.9,3.1-2.8c1.1-0.9,2.2-1.8,3.3-2.6c1.1-0.9,2.2-1.7,3.4-2.5c1.2-0.8,2.3-1.6,3.5-2.3
	c1.2-0.7,2.4-1.4,3.6-2.1c1.2-0.7,2.5-1.3,3.7-1.9c1.2-0.6,2.5-1.2,3.8-1.7c1.3-0.5,2.6-1.1,3.9-1.5c1.3-0.5,2.6-0.9,3.9-1.3
	c1.3-0.4,2.7-0.8,4-1.1c1.3-0.3,2.7-0.7,4-0.9c1.4-0.3,2.7-0.5,4.1-0.7c1.4-0.2,2.7-0.4,4.1-0.5c1.4-0.1,2.8-0.2,4.1-0.3
	s2.8-0.1,4.1-0.1c1.4,0,2.8,0,4.1,0.1c1.4,0.1,2.8,0.2,4.1,0.3c1.4,0.1,2.8,0.3,4.1,0.5c1.4,0.2,2.7,0.5,4.1,0.7
	c1.4,0.3,2.7,0.6,4,0.9c1.3,0.3,2.7,0.7,4,1.1c1.3,0.4,2.6,0.9,3.9,1.3c1.3,0.5,2.6,1,3.9,1.5c1.3,0.5,2.5,1.1,3.8,1.7
	c1.2,0.6,2.5,1.2,3.7,1.9c1.2,0.7,2.4,1.4,3.6,2.1c1.2,0.7,2.3,1.5,3.5,2.3c1.2,0.8,2.3,1.6,3.4,2.5c1.1,0.8,2.2,1.7,3.3,2.6
	c1.1,0.9,2.1,1.8,3.1,2.8c1,1,2,1.9,3,3c1,1,1.9,2,2.9,3.1c0.9,1.1,1.8,2.1,2.7,3.2c0.9,1.1,1.7,2.2,2.6,3.4
	c0.8,1.1,1.6,2.3,2.4,3.5c0.8,1.2,1.5,2.4,2.2,3.6c0.7,1.2,1.4,2.5,2,3.7c0.7,1.3,1.3,2.5,1.9,3.8c0.6,1.3,1.2,2.6,1.7,3.9
	c0.5,1.3,1,2.7,1.5,4c0.5,1.3,0.9,2.7,1.3,4.1c0.4,1.4,0.8,2.7,1.1,4.1c0.3,1.4,0.6,2.8,0.9,4.2c0.3,1.4,0.5,2.8,0.7,4.2
	c0.2,1.4,0.4,2.8,0.5,4.3c0.1,1.4,0.2,2.8,0.3,4.3S443.2,743.1,443.2,744.5z"/>
<g>
	<defs>
		<rect id="SVGID_1_" x="628" y="657.3" width="169.3" height="174.9"/>
	</defs>
	<clipPath id="SVGID_00000075871065752290818920000010436985276309852348_">
		<use xlink:href="#SVGID_1_"  style="overflow:visible;"/>
	</clipPath>
	<g style="clip-path:url(#SVGID_00000075871065752290818920000010436985276309852348_);">
		<path class="st2" d="M796.9,744.9c0,1.4,0,2.9-0.1,4.3c-0.1,1.4-0.2,2.8-0.3,4.3c-0.1,1.4-0.3,2.8-0.5,4.3
			c-0.2,1.4-0.4,2.8-0.7,4.2c-0.3,1.4-0.6,2.8-0.9,4.2c-0.3,1.4-0.7,2.8-1.1,4.1c-0.4,1.4-0.8,2.7-1.3,4.1c-0.5,1.3-1,2.7-1.5,4
			c-0.5,1.3-1.1,2.6-1.7,3.9c-0.6,1.3-1.2,2.6-1.9,3.8c-0.7,1.3-1.3,2.5-2,3.7c-0.7,1.2-1.5,2.4-2.2,3.6c-0.8,1.2-1.6,2.4-2.4,3.5
			s-1.7,2.3-2.6,3.4s-1.8,2.2-2.7,3.2c-0.9,1.1-1.9,2.1-2.9,3.1c-1,1-2,2-3,3c-1,1-2.1,1.9-3.1,2.8c-1.1,0.9-2.2,1.8-3.3,2.6
			c-1.1,0.9-2.2,1.7-3.4,2.5c-1.2,0.8-2.3,1.6-3.5,2.3c-1.2,0.7-2.4,1.4-3.6,2.1s-2.5,1.3-3.7,1.9s-2.5,1.2-3.8,1.7
			c-1.3,0.5-2.6,1.1-3.9,1.5c-1.3,0.5-2.6,0.9-3.9,1.3c-1.3,0.4-2.7,0.8-4,1.1c-1.3,0.3-2.7,0.7-4,0.9c-1.4,0.3-2.7,0.5-4.1,0.7
			c-1.4,0.2-2.7,0.4-4.1,0.5s-2.8,0.2-4.1,0.3c-1.4,0.1-2.8,0.1-4.1,0.1c-1.4,0-2.8,0-4.1-0.1c-1.4-0.1-2.8-0.2-4.1-0.3
			s-2.8-0.3-4.1-0.5c-1.4-0.2-2.7-0.5-4.1-0.7c-1.4-0.3-2.7-0.6-4-0.9c-1.3-0.3-2.7-0.7-4-1.1c-1.3-0.4-2.6-0.9-3.9-1.3
			c-1.3-0.5-2.6-1-3.9-1.5c-1.3-0.5-2.5-1.1-3.8-1.7s-2.5-1.3-3.7-1.9s-2.4-1.4-3.6-2.1c-1.2-0.7-2.3-1.5-3.5-2.3
			c-1.2-0.8-2.3-1.6-3.4-2.5c-1.1-0.8-2.2-1.7-3.3-2.6c-1.1-0.9-2.1-1.8-3.1-2.8c-1-1-2-1.9-3-3c-1-1-1.9-2-2.9-3.1
			c-0.9-1.1-1.8-2.1-2.7-3.2c-0.9-1.1-1.7-2.2-2.6-3.4s-1.6-2.3-2.4-3.5c-0.8-1.2-1.5-2.4-2.2-3.6c-0.7-1.2-1.4-2.5-2-3.7
			c-0.7-1.3-1.3-2.5-1.9-3.8c-0.6-1.3-1.2-2.6-1.7-3.9c-0.5-1.3-1-2.7-1.5-4c-0.5-1.3-0.9-2.7-1.3-4.1c-0.4-1.4-0.8-2.7-1.1-4.1
			c-0.3-1.4-0.6-2.8-0.9-4.2c-0.3-1.4-0.5-2.8-0.7-4.2c-0.2-1.4-0.4-2.8-0.5-4.3c-0.1-1.4-0.2-2.8-0.3-4.3c-0.1-1.4-0.1-2.9-0.1-4.3
			c0-1.4,0-2.9,0.1-4.3c0.1-1.4,0.2-2.9,0.3-4.3c0.1-1.4,0.3-2.8,0.5-4.2s0.4-2.8,0.7-4.2c0.3-1.4,0.6-2.8,0.9-4.2
			c0.3-1.4,0.7-2.8,1.1-4.1c0.4-1.4,0.8-2.7,1.3-4.1c0.5-1.3,1-2.7,1.5-4c0.5-1.3,1.1-2.6,1.7-3.9c0.6-1.3,1.2-2.6,1.9-3.8
			c0.7-1.3,1.3-2.5,2-3.7c0.7-1.2,1.4-2.4,2.2-3.6c0.8-1.2,1.6-2.4,2.4-3.5c0.8-1.2,1.7-2.3,2.6-3.4c0.9-1.1,1.8-2.2,2.7-3.2
			c0.9-1.1,1.9-2.1,2.9-3.1c1-1,2-2,3-3c1-1,2.1-1.9,3.1-2.8c1.1-0.9,2.2-1.8,3.3-2.6c1.1-0.8,2.2-1.7,3.4-2.5
			c1.2-0.8,2.3-1.6,3.5-2.3c1.2-0.7,2.4-1.4,3.6-2.1c1.2-0.7,2.5-1.3,3.7-1.9c1.2-0.6,2.5-1.2,3.8-1.7c1.3-0.5,2.6-1.1,3.9-1.5
			c1.3-0.5,2.6-0.9,3.9-1.3c1.3-0.4,2.7-0.8,4-1.1c1.3-0.3,2.7-0.7,4-0.9c1.4-0.3,2.7-0.5,4.1-0.7c1.4-0.2,2.7-0.4,4.1-0.5
			s2.8-0.2,4.1-0.3c1.4-0.1,2.8-0.1,4.1-0.1c1.4,0,2.8,0,4.1,0.1c1.4,0.1,2.8,0.2,4.1,0.3s2.7,0.3,4.1,0.5c1.4,0.2,2.7,0.5,4.1,0.7
			c1.4,0.3,2.7,0.6,4,0.9c1.3,0.3,2.7,0.7,4,1.1c1.3,0.4,2.6,0.9,3.9,1.3c1.3,0.5,2.6,1,3.9,1.5c1.3,0.5,2.5,1.1,3.8,1.7
			c1.2,0.6,2.5,1.3,3.7,1.9c1.2,0.7,2.4,1.4,3.6,2.1c1.2,0.7,2.4,1.5,3.5,2.3c1.1,0.8,2.3,1.6,3.4,2.5c1.1,0.9,2.2,1.7,3.3,2.6
			c1.1,0.9,2.1,1.8,3.1,2.8c1,1,2,1.9,3,3c1,1,1.9,2,2.9,3.1c0.9,1.1,1.8,2.1,2.7,3.2s1.7,2.2,2.6,3.4c0.8,1.1,1.6,2.3,2.4,3.5
			c0.8,1.2,1.5,2.4,2.2,3.6c0.7,1.2,1.4,2.5,2,3.7c0.7,1.3,1.3,2.5,1.9,3.8c0.6,1.3,1.2,2.6,1.7,3.9c0.5,1.3,1,2.7,1.5,4
			c0.5,1.3,0.9,2.7,1.3,4.1c0.4,1.4,0.8,2.7,1.1,4.1c0.3,1.4,0.6,2.8,0.9,4.2c0.3,1.4,0.5,2.8,0.7,4.2s0.4,2.8,0.5,4.2
			c0.1,1.4,0.2,2.8,0.3,4.3C796.9,742.1,796.9,743.5,796.9,744.9z"/>
	</g>
</g>
<path class="st4" d="M228,721c-0.4-9.1-1.7-15.5-7.5-22.2c-9.5-11-30.2-9.9-42.2-8.4c-9,1.1-17.5,3.4-25,9
	c-13.8,10.3-21.3,36.9-6.2,49.6c7.5,6.5,18.5,8.4,28,9.7C201.2,761.9,229.7,756.1,228,721z"/>
<path class="st4" d="M936.1,701.8c-13.6-19.2-50.8-20.3-72.2-5.6c-19.6,13.4-19.8,44.2,1.3,56.5c14.9,8.6,39,10.6,53.6,0.9
	C933.9,743.6,948.3,719.5,936.1,701.8z"/>
<path class="st5" d="M391.5,744.9c0,1.1-0.1,2.3-0.2,3.4c-0.1,1.1-0.3,2.2-0.5,3.3c-0.2,1.1-0.5,2.2-0.8,3.3
	c-0.3,1.1-0.7,2.1-1.1,3.2c-0.4,1-0.9,2.1-1.4,3.1c-0.5,1-1.1,2-1.7,2.9c-0.6,0.9-1.2,1.8-1.9,2.7c-0.7,0.9-1.4,1.7-2.2,2.5
	c-0.8,0.8-1.6,1.6-2.4,2.3c-0.8,0.7-1.7,1.4-2.6,2c-0.9,0.6-1.8,1.2-2.8,1.7c-0.9,0.5-1.9,1-2.9,1.4c-1,0.4-2,0.8-3,1.1
	c-1,0.3-2.1,0.6-3.1,0.8c-1.1,0.2-2.1,0.4-3.2,0.5c-1.1,0.1-2.1,0.2-3.2,0.2s-2.1-0.1-3.2-0.2c-1.1-0.1-2.1-0.3-3.2-0.5
	c-1.1-0.2-2.1-0.5-3.1-0.8c-1-0.3-2-0.7-3-1.1c-1-0.4-2-0.9-2.9-1.4c-0.9-0.5-1.9-1.1-2.8-1.7c-0.9-0.6-1.8-1.3-2.6-2
	c-0.8-0.7-1.6-1.5-2.4-2.3c-0.8-0.8-1.5-1.6-2.2-2.5c-0.7-0.9-1.3-1.8-1.9-2.7c-0.6-0.9-1.1-1.9-1.7-2.9c-0.5-1-1-2-1.4-3.1
	s-0.8-2.1-1.1-3.2c-0.3-1.1-0.6-2.2-0.8-3.3c-0.2-1.1-0.4-2.2-0.5-3.3c-0.1-1.1-0.2-2.2-0.2-3.4c0-1.1,0.1-2.3,0.2-3.4
	c0.1-1.1,0.3-2.2,0.5-3.3c0.2-1.1,0.5-2.2,0.8-3.3c0.3-1.1,0.7-2.1,1.1-3.2c0.4-1,0.9-2.1,1.4-3.1c0.5-1,1.1-2,1.7-2.9
	c0.6-0.9,1.2-1.8,1.9-2.7c0.7-0.9,1.4-1.7,2.2-2.5c0.8-0.8,1.6-1.6,2.4-2.3c0.8-0.7,1.7-1.4,2.6-2c0.9-0.6,1.8-1.2,2.8-1.7
	c0.9-0.5,1.9-1,2.9-1.4c1-0.4,2-0.8,3-1.1c1-0.3,2.1-0.6,3.1-0.8c1.1-0.2,2.1-0.4,3.2-0.5c1.1-0.1,2.1-0.2,3.2-0.2s2.1,0.1,3.2,0.2
	c1.1,0.1,2.1,0.3,3.2,0.5s2.1,0.5,3.1,0.8c1,0.3,2,0.7,3,1.1s2,0.9,2.9,1.4c0.9,0.5,1.9,1.1,2.8,1.7c0.9,0.6,1.8,1.3,2.6,2
	c0.8,0.7,1.6,1.5,2.4,2.3c0.8,0.8,1.5,1.6,2.2,2.5s1.3,1.8,1.9,2.7c0.6,0.9,1.1,1.9,1.7,2.9c0.5,1,1,2,1.4,3.1
	c0.4,1,0.8,2.1,1.1,3.2c0.3,1.1,0.6,2.2,0.8,3.3c0.2,1.1,0.4,2.2,0.5,3.3C391.4,742.7,391.5,743.8,391.5,744.9z"/>
<path class="st5" d="M745.2,744.9c0,1.1-0.1,2.3-0.2,3.4c-0.1,1.1-0.3,2.2-0.5,3.3c-0.2,1.1-0.5,2.2-0.8,3.3
	c-0.3,1.1-0.7,2.1-1.1,3.2s-0.9,2.1-1.4,3.1c-0.5,1-1.1,2-1.7,2.9c-0.6,0.9-1.2,1.8-1.9,2.7c-0.7,0.9-1.4,1.7-2.2,2.5
	c-0.8,0.8-1.6,1.6-2.4,2.3c-0.8,0.7-1.7,1.4-2.6,2c-0.9,0.6-1.8,1.2-2.8,1.7c-0.9,0.5-1.9,1-2.9,1.4c-1,0.4-2,0.8-3,1.1
	c-1,0.3-2.1,0.6-3.1,0.8c-1.1,0.2-2.1,0.4-3.2,0.5c-1.1,0.1-2.1,0.2-3.2,0.2s-2.1-0.1-3.2-0.2c-1.1-0.1-2.1-0.3-3.2-0.5
	c-1.1-0.2-2.1-0.5-3.1-0.8c-1-0.3-2-0.7-3-1.1c-1-0.4-2-0.9-2.9-1.4c-0.9-0.5-1.9-1.1-2.8-1.7c-0.9-0.6-1.8-1.3-2.6-2
	c-0.8-0.7-1.6-1.5-2.4-2.3c-0.8-0.8-1.5-1.6-2.2-2.5c-0.7-0.9-1.3-1.8-1.9-2.7c-0.6-0.9-1.1-1.9-1.7-2.9c-0.5-1-1-2-1.4-3.1
	c-0.4-1-0.8-2.1-1.1-3.2c-0.3-1.1-0.6-2.2-0.8-3.3c-0.2-1.1-0.4-2.2-0.5-3.3c-0.1-1.1-0.2-2.2-0.2-3.4c0-1.1,0.1-2.3,0.2-3.4
	c0.1-1.1,0.3-2.2,0.5-3.3c0.2-1.1,0.5-2.2,0.8-3.3c0.3-1.1,0.7-2.1,1.1-3.2c0.4-1,0.9-2.1,1.4-3.1c0.5-1,1.1-2,1.7-2.9
	c0.6-0.9,1.2-1.8,1.9-2.7s1.4-1.7,2.2-2.5c0.8-0.8,1.6-1.6,2.4-2.3c0.8-0.7,1.7-1.4,2.6-2c0.9-0.6,1.8-1.2,2.8-1.7
	c0.9-0.5,1.9-1,2.9-1.4s2-0.8,3-1.1c1-0.3,2.1-0.6,3.1-0.8s2.1-0.4,3.2-0.5c1.1-0.1,2.1-0.2,3.2-0.2s2.1,0.1,3.2,0.2
	c1.1,0.1,2.1,0.3,3.2,0.5c1.1,0.2,2.1,0.5,3.1,0.8c1,0.3,2,0.7,3,1.1c1,0.4,2,0.9,2.9,1.4c0.9,0.5,1.9,1.1,2.8,1.7
	c0.9,0.6,1.8,1.3,2.6,2c0.8,0.7,1.6,1.5,2.4,2.3c0.8,0.8,1.5,1.6,2.2,2.5c0.7,0.9,1.3,1.8,1.9,2.7c0.6,0.9,1.1,1.9,1.7,2.9
	c0.5,1,1,2,1.4,3.1c0.4,1,0.8,2.1,1.1,3.2c0.3,1.1,0.6,2.2,0.8,3.3c0.2,1.1,0.4,2.2,0.5,3.3C745.1,742.7,745.2,743.8,745.2,744.9z"
	/>
</svg>
