<?xml version="1.0" encoding="utf-8"?>
<!-- Generator: Adobe Illustrator 26.5.0, SVG Export Plug-In . SVG Version: 6.00 Build 0)  -->
<svg version="1.1" id="Layer_1" xmlns="http://www.w3.org/2000/svg" xmlns:xlink="http://www.w3.org/1999/xlink" x="0px" y="0px"
	 viewBox="0 0 1080 1080" style="enable-background:new 0 0 1080 1080;" xml:space="preserve">
<style type="text/css">
	.st0{clip-path:url(#SVGID_00000024688024830017580720000011860859461205006737_);}
	.st1{fill:#58C8D0;}
	.st2{clip-path:url(#SVGID_00000014599729203668522590000017763663908284512663_);}
	.st3{fill:#7AD3D7;}
	.st4{fill:#347B9A;}
	.st5{fill:#449FB4;}
	.st6{fill:#1C4460;}
	.st7{clip-path:url(#SVGID_00000062166641768885961820000012259793550653435784_);}
</style>
<g>
	<defs>
		<rect id="SVGID_1_" x="73.3" y="228.3" width="785.3" height="549"/>
	</defs>
	<clipPath id="SVGID_00000079450246401411151430000004824851229883056801_">
		<use xlink:href="#SVGID_1_"  style="overflow:visible;"/>
	</clipPath>
	<g style="clip-path:url(#SVGID_00000079450246401411151430000004824851229883056801_);">
		<path class="st1" d="M767.6,776.6l90.5-387.3L267.6,234.9l0,0c-12.6-4.3-25.8-6.6-39.4-6.6C143,228.3,74,317.1,74,426.7
			c0,90.9,47.6,167.5,112.4,190.9l0,0.1l0.6,0.2c6,2.1,12.2,3.9,18.5,5.1L767.6,776.6"/>
	</g>
</g>
<g>
	<defs>
		<rect id="SVGID_00000057109666168098571340000004140815189963834800_" x="73.3" y="228.3" width="785.3" height="221"/>
	</defs>
	<clipPath id="SVGID_00000145051832245697974480000015104710945034424991_">
		<use xlink:href="#SVGID_00000057109666168098571340000004140815189963834800_"  style="overflow:visible;"/>
	</clipPath>
	<g style="clip-path:url(#SVGID_00000145051832245697974480000015104710945034424991_);">
		<path class="st3" d="M228.1,271.4c13.6,0,26.8,2.3,39.4,6.6l0,0l581,152l9.5-40.6L267.6,234.9l0,0c-12.6-4.3-25.8-6.6-39.4-6.6
			C143,228.3,74,317.1,74,426.7c0,7.3,0.3,14.4,0.9,21.4C83.2,348.8,148.7,271.4,228.1,271.4"/>
	</g>
</g>
<path class="st4" d="M776.9,615.4L761,664L212.8,521c-6.2-0.9-12.3-2.3-18.3-4l-0.6-0.1l0,0c-60.6-17.4-105.8-72.1-110.5-138.3
	c-0.3,3.7-0.4,7.4-0.4,11.1C83,461,130,521,194,539.4l0,0l0.6,0.1c6,1.7,12,3,18.3,4l548.2,143l22.2-67.8
	C781.1,617.7,779,616.6,776.9,615.4"/>
<path class="st3" d="M776.9,595.3L761,643.9l-548.2-143c-6.2-0.9-12.3-2.3-18.3-4l-0.6-0.1l0,0c-60.6-17.4-105.8-72.1-110.5-138.3
	c-0.3,3.7-0.4,7.4-0.4,11.1c0,71.3,47,131.3,111,149.7l0,0l0.6,0.1c6,1.7,12,3,18.3,4l548.2,143l22.2-67.8
	C781.1,597.6,779,596.5,776.9,595.3"/>
<path class="st1" d="M1006.3,588c0,111.2-79.2,201.3-177,201.3c-97.7,0-177-90.1-177-201.3c0-111.1,79.2-201.3,177-201.3
	C927,386.7,1006.3,476.8,1006.3,588"/>
<path class="st3" d="M829.3,408.1c94.6,0,171.9,84.4,176.7,190.6c0.2-3.5,0.2-7.1,0.2-10.7c0-111.1-79.2-201.3-177-201.3
	c-97.7,0-177,90.1-177,201.3c0,3.6,0.1,7.1,0.3,10.7C657.4,492.4,734.7,408.1,829.3,408.1"/>
<path class="st5" d="M969.6,588c0,88.1-62.8,159.6-140.3,159.6C751.8,747.5,689,676.1,689,588c0-88.1,62.8-159.6,140.3-159.6
	C906.8,428.4,969.6,499.8,969.6,588"/>
<path class="st4" d="M829.3,433c-74.8,0-135.7,69.5-135.7,155c0,85.5,60.9,155,135.7,155c74.9,0,135.8-69.5,135.8-155
	C965,502.5,904.1,433,829.3,433z M829.3,752.1c-79.9,0-144.9-73.6-144.9-164.1c0-90.5,65-164.1,144.9-164.1
	c79.9,0,144.9,73.6,144.9,164.1C974.2,678.5,909.2,752.1,829.3,752.1"/>
<path class="st5" d="M939.9,588c0,69.5-49.5,125.8-110.6,125.8c-61.1,0-110.6-56.3-110.6-125.8s49.5-125.8,110.6-125.8
	C890.4,462.2,939.9,518.5,939.9,588"/>
<path class="st4" d="M829.3,466.8c-58.5,0-106,54.4-106,121.2c0,66.8,47.6,121.2,106,121.2c58.5,0,106-54.4,106-121.2
	C935.3,521.1,887.7,466.8,829.3,466.8z M829.3,718.3c-63.5,0-115.2-58.5-115.2-130.3s51.7-130.3,115.2-130.3
	c63.5,0,115.2,58.5,115.2,130.3S892.8,718.3,829.3,718.3"/>
<path class="st4" d="M858.1,588c0,18.1-12.9,32.7-28.8,32.7c-15.9,0-28.8-14.6-28.8-32.7c0-18.1,12.9-32.7,28.8-32.7
	C845.2,555.2,858.1,569.9,858.1,588"/>
<path class="st4" d="M829.3,497.7c-43.5,0-78.8,40.5-78.8,90.3c0,49.8,35.4,90.3,78.8,90.3c43.5,0,78.8-40.5,78.8-90.3
	C908.1,538.2,872.8,497.7,829.3,497.7z M829.3,687.4c-48.5,0-88-44.6-88-99.4c0-54.8,39.5-99.4,88-99.4c48.5,0,88,44.6,88,99.4
	C917.3,642.8,877.8,687.4,829.3,687.4"/>
<path class="st4" d="M829.3,533.5c-26.1,0-47.3,24.4-47.3,54.4c0,30,21.2,54.4,47.3,54.4s47.3-24.4,47.3-54.4
	C876.6,558,855.4,533.5,829.3,533.5z M829.3,651.5c-31.1,0-56.4-28.5-56.4-63.6s25.3-63.6,56.4-63.6c31.1,0,56.5,28.5,56.5,63.6
	S860.4,651.5,829.3,651.5"/>
<path class="st4" d="M534,558.4c0-111.1,79.2-201.3,177-201.3c28.6,0,47.9,6.3,77.7,14.1c-28.3-21.8-60.8-27.3-97.6-27.3
	c-97.7,0-186.1,89.5-186.1,200.6c0,78.7,41.3,190.9,106.4,189.4C564.5,697.7,534,627.7,534,558.4"/>
<path class="st6" d="M770.7,366.4c5.7,1.5,11.6,3.1,18,4.8c-28.3-21.8-60.8-27.3-97.6-27.3c-1.2,0-2.3,0.1-3.5,0.1
	C718.5,344.7,746.1,350,770.7,366.4"/>
<path class="st6" d="M534,558.4c0-109.4,76.8-198.3,172.3-201.1c-2.2-0.1-4.4-0.1-6.7-0.1c-97.7,0-177,90.1-177,201.3
	c0,68.5,29.8,137.8,75.8,174.3c4.2,0.9,8.5,1.4,12.9,1.3C564.5,697.7,534,627.7,534,558.4"/>
<path class="st4" d="M178.4,463.6c0-109.7,79.2-198.6,177-198.6c28.6,0,47.9,6.2,77.7,13.9c-28.3-21.6-60.8-27-97.6-27
	c-97.7,0-186.1,88.3-186.1,198c0,77.6,41.3,188.4,106.4,186.9C208.9,601.1,178.4,532,178.4,463.6"/>
<path class="st6" d="M415.1,274.2c5.7,1.5,11.6,3.1,18,4.7c-28.3-21.6-60.8-27-97.6-27c-1.2,0-2.3,0.1-3.5,0.1
	C362.8,252.7,390.5,257.9,415.1,274.2"/>
<path class="st6" d="M178.4,463.6c0-107.9,76.8-195.7,172.3-198.5c-2.2-0.1-4.4-0.1-6.7-0.1c-97.7,0-177,88.9-177,198.6
	c0,67.6,29.8,135.9,75.8,172c4.2,0.9,8.5,1.4,12.9,1.3C208.9,601.1,178.4,532,178.4,463.6"/>
<g>
	<defs>
		<rect id="SVGID_00000144306142141913864320000017140487780056225435_" x="110.7" y="514.7" width="426.7" height="336.7"/>
	</defs>
	<clipPath id="SVGID_00000054974939773474749350000002027363049997679262_">
		<use xlink:href="#SVGID_00000144306142141913864320000017140487780056225435_"  style="overflow:visible;"/>
	</clipPath>
	<g style="clip-path:url(#SVGID_00000054974939773474749350000002027363049997679262_);">
		<path class="st6" d="M342.5,851.3c-57.2,0-119.3-21-165.1-58.3c-47.1-38.4-70.6-88.6-66.2-141.5c3.1-36.8,23.5-121.9,64.1-135.8
			l8.9,26c-20.1,6.8-41.9,67.4-45.6,112.1c-3.6,43.6,16.3,85.4,56.2,117.9c54.8,44.7,135.6,63.4,196.5,45.6
			c64.9-19.1,91.2-120.5,106.9-181.2c9.9-38.3,14-54.1,28.2-56.5l4.5,27.1c3.4-0.6,5.4-2.5,5.9-3.2c-2.8,4-7.7,22.8-12,39.4
			c-17.2,66.3-45.9,177.1-125.7,200.6C381.4,848.8,362.2,851.3,342.5,851.3"/>
	</g>
</g>
<path class="st4" d="M342,836.5c-54.1,0-112.8-20-156.2-55.3c-43.9-35.8-65.8-82.3-61.7-131.2c3.2-38.1,23.2-114.1,56.9-125.6l3,8.7
	c-25.7,8.8-47.2,75.5-50.8,117.7c-3.8,45.8,16.9,89.6,58.4,123.4c56,45.6,138.6,64.7,200.9,46.3c68.5-20.1,95.1-122.8,111-184.1
	c9.1-35.3,12.7-47.6,20.5-48.9l1.5,9c0.4-0.1,0.6-0.2,0.6-0.2c-3.4,2.5-8.9,23.7-13.8,42.4c-16.4,63.2-43.7,169-117.2,190.6
	C378.6,834.1,360.6,836.5,342,836.5"/>
</svg>
